0
SECTION
2
HEADER
0
ENDSEC
0
SECTION
2
ENTITIES
0
3DFACE
10
-34.845062
20
-9.384584
30
51.825676
11
-34.845062
21
-9.084583
31
51.825676
12
-34.845062
22
-8.984583
32
51.825676
13
-34.845062
23
-8.984583
33
51.825676
0
3DFACE
10
-34.845062
20
-9.384584
30
51.825676
11
-34.845062
21
-8.984583
31
51.825676
12
-34.845062
22
-9.084583
32
51.825676
13
-34.845062
23
-9.084583
33
51.825676
0
3DFACE
10
-34.845062
20
-9.084583
30
51.825676
11
-34.845062
21
-9.084583
31
51.825676
12
-34.845062
22
-8.984583
32
51.825676
13
-34.845062
23
-8.984583
33
51.825676
0
3DFACE
10
-34.845062
20
-9.184584
30
51.825676
11
-34.845062
21
-9.084583
31
51.825676
12
-34.845062
22
-8.984583
32
51.825676
13
-34.845062
23
-8.984583
33
51.825676
0
3DFACE
10
-34.845062
20
-9.084583
30
51.825676
11
-34.845062
21
-9.084583
31
51.825676
12
-34.845062
22
-8.984583
32
51.825676
13
-34.845062
23
-8.984583
33
51.825676
0
3DFACE
10
-34.845062
20
-9.184584
30
51.825676
11
-34.845062
21
-9.084583
31
51.825676
12
-34.845062
22
-8.984583
32
51.825676
13
-34.845062
23
-8.984583
33
51.825676
0
3DFACE
10
-34.845062
20
-9.084583
30
51.825676
11
-34.845062
21
-9.084583
31
51.825676
12
-34.845062
22
-9.184584
32
51.825676
13
-34.845062
23
-9.184584
33
51.825676
0
3DFACE
10
-34.845062
20
-8.984583
30
51.825676
11
-34.845062
21
-9.084583
31
51.825676
12
-34.845062
22
-9.184584
32
51.825676
13
-34.845062
23
-9.184584
33
51.825676
0
3DFACE
10
-34.845062
20
-9.084583
30
51.825676
11
-34.845062
21
-9.084583
31
51.825676
12
-34.845062
22
-8.984583
32
51.825676
13
-34.845062
23
-8.984583
33
51.825676
0
3DFACE
10
-34.845062
20
-9.184584
30
51.825676
11
-34.845062
21
-9.084583
31
51.825676
12
-34.845062
22
-8.984583
32
51.825676
13
-34.845062
23
-8.984583
33
51.825676
0
3DFACE
10
-34.845062
20
-9.084583
30
51.825676
11
-34.845062
21
-9.084583
31
51.825676
12
-34.845062
22
-9.184584
32
51.825676
13
-34.845062
23
-9.184584
33
51.825676
0
3DFACE
10
-34.845062
20
-8.984583
30
51.825676
11
-34.845062
21
-9.084583
31
51.825676
12
-34.845062
22
-9.184584
32
51.825676
13
-34.845062
23
-9.184584
33
51.825676
0
3DFACE
10
-34.845062
20
-9.084583
30
51.825676
11
-34.845062
21
-9.084583
31
51.825676
12
-34.845062
22
-8.984583
32
51.825676
13
-34.845062
23
-8.984583
33
51.825676
0
3DFACE
10
-34.845062
20
-9.084583
30
51.825676
11
-34.845062
21
-9.084583
31
51.825676
12
-34.845062
22
-8.984583
32
51.825676
13
-34.845062
23
-8.984583
33
51.825676
0
3DFACE
10
-34.845062
20
-9.084583
30
51.825676
11
-34.845062
21
-9.084583
31
51.825676
12
-34.845062
22
-8.984583
32
51.825676
13
-34.845062
23
-8.984583
33
51.825676
0
3DFACE
10
-34.845062
20
-9.084583
30
51.825676
11
-34.845062
21
-9.084583
31
51.825676
12
-34.845062
22
-8.984583
32
51.825676
13
-34.845062
23
-8.984583
33
51.825676
0
3DFACE
10
-34.845062
20
-9.084583
30
51.825676
11
-34.845062
21
-9.084583
31
51.825676
12
-34.845062
22
-8.984583
32
51.825676
13
-34.845062
23
-8.984583
33
51.825676
0
3DFACE
10
-34.845062
20
-9.084583
30
51.825676
11
-34.845062
21
-9.084583
31
51.825676
12
-34.845062
22
-8.984583
32
51.825676
13
-34.845062
23
-8.984583
33
51.825676
0
3DFACE
10
-34.845062
20
-9.084583
30
51.825676
11
-34.845062
21
-9.084583
31
51.825676
12
-34.845062
22
-8.984583
32
51.825676
13
-34.845062
23
-8.984583
33
51.825676
0
3DFACE
10
-34.845062
20
-9.184584
30
51.825676
11
-34.845062
21
-9.084583
31
51.825676
12
-34.845062
22
-8.984583
32
51.825676
13
-34.845062
23
-8.984583
33
51.825676
0
3DFACE
10
-34.845062
20
-8.984583
30
51.825676
11
-34.845062
21
-9.084583
31
51.825676
12
-34.845062
22
-9.184584
32
51.825676
13
-34.845062
23
-9.184584
33
51.825676
0
3DFACE
10
-34.845062
20
-9.384584
30
51.825676
11
-34.845062
21
-8.984583
31
51.825676
12
-34.845062
22
-9.184584
32
51.825676
13
-34.845062
23
-9.184584
33
51.825676
0
3DFACE
10
-34.845062
20
-9.284584
30
51.825676
11
-34.845062
21
-9.284584
31
51.825676
12
-34.845062
22
-8.984583
32
51.825676
13
-34.845062
23
-8.984583
33
51.825676
0
3DFACE
10
-34.845062
20
-9.084583
30
51.825676
11
-34.845062
21
-9.284584
31
51.825676
12
-34.845062
22
-8.984583
32
51.825676
13
-34.845062
23
-8.984583
33
51.825676
0
3DFACE
10
-34.845062
20
-9.284584
30
51.825676
11
-34.845062
21
-9.284584
31
51.825676
12
-34.845062
22
-9.084583
32
51.825676
13
-34.845062
23
-9.084583
33
51.825676
0
3DFACE
10
-34.845062
20
-8.984583
30
51.825676
11
-34.845062
21
-9.284584
31
51.825676
12
-34.845062
22
-9.084583
32
51.825676
13
-34.845062
23
-9.084583
33
51.825676
0
3DFACE
10
-34.845062
20
-9.284584
30
51.825676
11
-34.845062
21
-9.284584
31
51.825676
12
-34.845062
22
-8.984583
32
51.825676
13
-34.845062
23
-8.984583
33
51.825676
0
3DFACE
10
-34.845062
20
-9.084583
30
51.825676
11
-34.845062
21
-9.284584
31
51.825676
12
-34.845062
22
-8.984583
32
51.825676
13
-34.845062
23
-8.984583
33
51.825676
0
3DFACE
10
-34.845062
20
-9.284584
30
51.825676
11
-34.845062
21
-9.284584
31
51.825676
12
-34.845062
22
-9.084583
32
51.825676
13
-34.845062
23
-9.084583
33
51.825676
0
3DFACE
10
-34.845062
20
-8.984583
30
51.825676
11
-34.845062
21
-9.284584
31
51.825676
12
-34.845062
22
-9.084583
32
51.825676
13
-34.845062
23
-9.084583
33
51.825676
0
3DFACE
10
-34.845062
20
-9.284584
30
51.825676
11
-34.845062
21
-9.184584
31
51.825676
12
-34.845062
22
-8.984583
32
51.825676
13
-34.845062
23
-8.984583
33
51.825676
0
3DFACE
10
-34.845062
20
-9.084583
30
51.825676
11
-34.845062
21
-9.284584
31
51.825676
12
-34.845062
22
-8.984583
32
51.825676
13
-34.845062
23
-8.984583
33
51.825676
0
3DFACE
10
-34.845062
20
-9.184584
30
51.825676
11
-34.845062
21
-9.084583
31
51.825676
12
-34.845062
22
-9.084583
32
51.825676
13
-34.845062
23
-9.084583
33
51.825676
0
3DFACE
10
-34.845062
20
-8.984583
30
51.825676
11
-34.845062
21
-9.184584
31
51.825676
12
-34.845062
22
-9.084583
32
51.825676
13
-34.845062
23
-9.084583
33
51.825676
0
3DFACE
10
-34.845062
20
-9.084583
30
51.825676
11
-34.845062
21
-9.184584
31
51.825676
12
-34.845062
22
-8.984583
32
51.825676
13
-34.845062
23
-8.984583
33
51.825676
0
3DFACE
10
-34.845062
20
-9.084583
30
51.825676
11
-34.845062
21
-9.084583
31
51.825676
12
-34.845062
22
-8.984583
32
51.825676
13
-34.845062
23
-8.984583
33
51.825676
0
3DFACE
10
-34.845062
20
-9.184584
30
51.825676
11
-34.845062
21
-9.284584
31
51.825676
12
-34.845062
22
-9.084583
32
51.825676
13
-34.845062
23
-9.084583
33
51.825676
0
3DFACE
10
-34.845062
20
-8.984583
30
51.825676
11
-34.845062
21
-9.184584
31
51.825676
12
-34.845062
22
-9.084583
32
51.825676
13
-34.845062
23
-9.084583
33
51.825676
0
3DFACE
10
-34.845062
20
-8.984583
30
51.825676
11
-34.845062
21
-9.184584
31
51.825676
12
-34.845062
22
-9.284584
32
51.825676
13
-34.845062
23
-9.284584
33
51.825676
0
3DFACE
10
-34.845062
20
-9.284584
30
51.825676
11
-34.845062
21
-8.984583
31
51.825676
12
-34.845062
22
-9.284584
32
51.825676
13
-34.845062
23
-9.284584
33
51.825676
0
3DFACE
10
-34.845062
20
-9.184584
30
51.825676
11
-34.845062
21
-9.084583
31
51.825676
12
-34.845062
22
-9.284584
32
51.825676
13
-34.845062
23
-9.284584
33
51.825676
0
3DFACE
10
-34.845062
20
-9.284584
30
51.825676
11
-34.845062
21
-9.184584
31
51.825676
12
-34.845062
22
-9.284584
32
51.825676
13
-34.845062
23
-9.284584
33
51.825676
0
3DFACE
10
-34.845062
20
-9.084583
30
51.825676
11
-34.845062
21
-9.184584
31
51.825676
12
-34.845062
22
-9.284584
32
51.825676
13
-34.845062
23
-9.284584
33
51.825676
0
3DFACE
10
-34.845062
20
-9.284584
30
51.825676
11
-34.845062
21
-9.084583
31
51.825676
12
-34.845062
22
-9.284584
32
51.825676
13
-34.845062
23
-9.284584
33
51.825676
0
3DFACE
10
-34.845062
20
-9.184584
30
51.825676
11
-34.845062
21
-9.084583
31
51.825676
12
-34.845062
22
-9.284584
32
51.825676
13
-34.845062
23
-9.284584
33
51.825676
0
3DFACE
10
-34.845062
20
-9.284584
30
51.825676
11
-34.845062
21
-9.184584
31
51.825676
12
-34.845062
22
-9.284584
32
51.825676
13
-34.845062
23
-9.284584
33
51.825676
0
3DFACE
10
-34.845062
20
-9.084583
30
51.825676
11
-34.845062
21
-9.284584
31
51.825676
12
-34.845062
22
-9.184584
32
51.825676
13
-34.845062
23
-9.184584
33
51.825676
0
3DFACE
10
-34.845062
20
-9.284584
30
51.825676
11
-34.845062
21
-9.084583
31
51.825676
12
-34.845062
22
-9.184584
32
51.825676
13
-34.845062
23
-9.184584
33
51.825676
0
3DFACE
10
-34.845062
20
-9.284584
30
51.825676
11
-34.845062
21
-9.084583
31
51.825676
12
-34.845062
22
-9.084583
32
51.825676
13
-34.845062
23
-9.084583
33
51.825676
0
3DFACE
10
-34.845062
20
-9.184584
30
51.825676
11
-34.845062
21
-9.284584
31
51.825676
12
-34.845062
22
-9.084583
32
51.825676
13
-34.845062
23
-9.084583
33
51.825676
0
3DFACE
10
-34.845062
20
-8.984583
30
51.825676
11
-34.845062
21
-9.184584
31
51.825676
12
-34.845062
22
-9.184584
32
51.825676
13
-34.845062
23
-9.184584
33
51.825676
0
3DFACE
10
-34.845062
20
-9.084583
30
51.825676
11
-34.845062
21
-8.984583
31
51.825676
12
-34.845062
22
-9.184584
32
51.825676
13
-34.845062
23
-9.184584
33
51.825676
0
3DFACE
10
-34.845062
20
-9.184584
30
51.825676
11
-34.845062
21
-8.984583
31
51.825676
12
-34.845062
22
-9.284584
32
51.825676
13
-34.845062
23
-9.284584
33
51.825676
0
3DFACE
10
-34.845062
20
-9.184584
30
51.825676
11
-34.845062
21
-9.184584
31
51.825676
12
-34.845062
22
-9.284584
32
51.825676
13
-34.845062
23
-9.284584
33
51.825676
0
3DFACE
10
-34.845062
20
-9.084583
30
51.825676
11
-34.845062
21
-9.184584
31
51.825676
12
-34.845062
22
-8.984583
32
51.825676
13
-34.845062
23
-8.984583
33
51.825676
0
3DFACE
10
-34.845062
20
-9.184584
30
51.825676
11
-34.845062
21
-9.084583
31
51.825676
12
-34.845062
22
-8.984583
32
51.825676
13
-34.845062
23
-8.984583
33
51.825676
0
3DFACE
10
-34.845062
20
-9.084583
30
51.825676
11
-34.845062
21
-9.184584
31
51.825676
12
-34.845062
22
-9.084583
32
51.825676
13
-34.845062
23
-9.084583
33
51.825676
0
3DFACE
10
-34.845062
20
-9.084583
30
51.825676
11
-34.845062
21
-9.084583
31
51.825676
12
-34.845062
22
-9.084583
32
51.825676
13
-34.845062
23
-9.084583
33
51.825676
0
3DFACE
10
-34.845062
20
-9.084583
30
51.825676
11
-34.845062
21
-9.184584
31
51.825676
12
-34.845062
22
-8.984583
32
51.825676
13
-34.845062
23
-8.984583
33
51.825676
0
3DFACE
10
-34.845062
20
-9.084583
30
51.825676
11
-34.845062
21
-9.084583
31
51.825676
12
-34.845062
22
-8.984583
32
51.825676
13
-34.845062
23
-8.984583
33
51.825676
0
3DFACE
10
-34.845062
20
-9.184584
30
51.825676
11
-34.845062
21
-9.084583
31
51.825676
12
-34.845062
22
-8.984583
32
51.825676
13
-34.845062
23
-8.984583
33
51.825676
0
3DFACE
10
-34.845062
20
-9.184584
30
51.825676
11
-34.845062
21
-9.184584
31
51.825676
12
-34.845062
22
-8.984583
32
51.825676
13
-34.845062
23
-8.984583
33
51.825676
0
3DFACE
10
-34.845062
20
-9.084583
30
51.825676
11
-34.845062
21
-9.084583
31
51.825676
12
-34.845062
22
-8.984583
32
51.825676
13
-34.845062
23
-8.984583
33
51.825676
0
3DFACE
10
-34.845062
20
-9.184584
30
51.825676
11
-34.845062
21
-9.084583
31
51.825676
12
-34.845062
22
-8.984583
32
51.825676
13
-34.845062
23
-8.984583
33
51.825676
0
3DFACE
10
-34.845062
20
-9.184584
30
51.825676
11
-34.845062
21
-8.984583
31
51.825676
12
-34.845062
22
-9.084583
32
51.825676
13
-34.845062
23
-9.084583
33
51.825676
0
3DFACE
10
-34.845062
20
-9.084583
30
51.825676
11
-34.845062
21
-9.184584
31
51.825676
12
-34.845062
22
-9.084583
32
51.825676
13
-34.845062
23
-9.084583
33
51.825676
0
3DFACE
10
-34.845062
20
-9.184584
30
51.825676
11
-34.845062
21
-9.084583
31
51.825676
12
-34.845062
22
-8.984583
32
51.825676
13
-34.845062
23
-8.984583
33
51.825676
0
3DFACE
10
-34.845062
20
-9.084583
30
51.825676
11
-34.845062
21
-9.184584
31
51.825676
12
-34.845062
22
-8.984583
32
51.825676
13
-34.845062
23
-8.984583
33
51.825676
0
3DFACE
10
-34.845062
20
-9.184584
30
51.825676
11
-34.845062
21
-8.984583
31
51.825676
12
-34.845062
22
-9.084583
32
51.825676
13
-34.845062
23
-9.084583
33
51.825676
0
3DFACE
10
-34.845062
20
-8.984583
30
51.825676
11
-34.845062
21
-9.184584
31
51.825676
12
-34.845062
22
-9.084583
32
51.825676
13
-34.845062
23
-9.084583
33
51.825676
0
3DFACE
10
-34.845062
20
-9.184584
30
51.825676
11
-34.845062
21
-9.084583
31
51.825676
12
-34.845062
22
-8.984583
32
51.825676
13
-34.845062
23
-8.984583
33
51.825676
0
3DFACE
10
-34.845062
20
-9.084583
30
51.825676
11
-34.845062
21
-9.184584
31
51.825676
12
-34.845062
22
-8.984583
32
51.825676
13
-34.845062
23
-8.984583
33
51.825676
0
3DFACE
10
-34.845062
20
-8.984583
30
51.825676
11
-34.845062
21
-9.084583
31
51.825676
12
-34.845062
22
-9.184584
32
51.825676
13
-34.845062
23
-9.184584
33
51.825676
0
3DFACE
10
-34.845062
20
-9.084583
30
51.825676
11
-34.845062
21
-8.984583
31
51.825676
12
-34.845062
22
-9.184584
32
51.825676
13
-34.845062
23
-9.184584
33
51.825676
0
3DFACE
10
-34.845062
20
-9.084583
30
51.825676
11
-34.845062
21
-9.084583
31
51.825676
12
-34.845062
22
-8.984583
32
51.825676
13
-34.845062
23
-8.984583
33
51.825676
0
3DFACE
10
-34.845062
20
-9.084583
30
51.825676
11
-34.845062
21
-9.084583
31
51.825676
12
-34.845062
22
-8.984583
32
51.825676
13
-34.845062
23
-8.984583
33
51.825676
0
3DFACE
10
-34.845062
20
-9.184584
30
51.825676
11
-34.845062
21
-8.984583
31
51.825676
12
-34.845062
22
-9.084583
32
51.825676
13
-34.845062
23
-9.084583
33
51.825676
0
3DFACE
10
-34.845062
20
-9.184584
30
51.825676
11
-34.845062
21
-9.184584
31
51.825676
12
-34.845062
22
-9.084583
32
51.825676
13
-34.845062
23
-9.084583
33
51.825676
0
3DFACE
10
-34.845062
20
-9.184584
30
51.825676
11
-34.845062
21
-9.184584
31
51.825676
12
-34.845062
22
-9.084583
32
51.825676
13
-34.845062
23
-9.084583
33
51.825676
0
3DFACE
10
-34.845062
20
-8.984583
30
51.825676
11
-34.845062
21
-9.184584
31
51.825676
12
-34.845062
22
-9.084583
32
51.825676
13
-34.845062
23
-9.084583
33
51.825676
0
3DFACE
10
-34.845062
20
-9.084583
30
51.825676
11
-34.845062
21
-9.084583
31
51.825676
12
-34.845062
22
-9.184584
32
51.825676
13
-34.845062
23
-9.184584
33
51.825676
0
3DFACE
10
-34.845062
20
-8.984583
30
51.825676
11
-34.845062
21
-9.084583
31
51.825676
12
-34.845062
22
-9.184584
32
51.825676
13
-34.845062
23
-9.184584
33
51.825676
0
3DFACE
10
-34.845062
20
-9.084583
30
51.825676
11
-34.845062
21
-9.084583
31
51.825676
12
-34.845062
22
-8.984583
32
51.825676
13
-34.845062
23
-8.984583
33
51.825676
0
3DFACE
10
-34.845062
20
-9.084583
30
51.825676
11
-34.845062
21
-9.084583
31
51.825676
12
-34.845062
22
-8.984583
32
51.825676
13
-34.845062
23
-8.984583
33
51.825676
0
3DFACE
10
-34.845062
20
-9.084583
30
51.825676
11
-34.845062
21
-9.084583
31
51.825676
12
-34.845062
22
-9.184584
32
51.825676
13
-34.845062
23
-9.184584
33
51.825676
0
3DFACE
10
-34.845062
20
-8.984583
30
51.825676
11
-34.845062
21
-9.084583
31
51.825676
12
-34.845062
22
-9.184584
32
51.825676
13
-34.845062
23
-9.184584
33
51.825676
0
3DFACE
10
-34.845062
20
-9.284584
30
51.825676
11
-34.845062
21
-9.184584
31
51.825676
12
-34.845062
22
-9.084583
32
51.825676
13
-34.845062
23
-9.084583
33
51.825676
0
3DFACE
10
-34.845062
20
-9.284584
30
51.825676
11
-34.845062
21
-9.284584
31
51.825676
12
-34.845062
22
-9.084583
32
51.825676
13
-34.845062
23
-9.084583
33
51.825676
0
3DFACE
10
-34.845062
20
-9.084583
30
51.825676
11
-34.845062
21
-9.284584
31
51.825676
12
-34.845062
22
-9.284584
32
51.825676
13
-34.845062
23
-9.284584
33
51.825676
0
3DFACE
10
-34.845062
20
-9.184584
30
51.825676
11
-34.845062
21
-9.084583
31
51.825676
12
-34.845062
22
-9.284584
32
51.825676
13
-34.845062
23
-9.284584
33
51.825676
0
3DFACE
10
-34.845062
20
-9.184584
30
51.825676
11
-34.845062
21
-9.084583
31
51.825676
12
-34.845062
22
-9.184584
32
51.825676
13
-34.845062
23
-9.184584
33
51.825676
0
3DFACE
10
-34.845062
20
-9.184584
30
51.825676
11
-34.845062
21
-9.184584
31
51.825676
12
-34.845062
22
-9.184584
32
51.825676
13
-34.845062
23
-9.184584
33
51.825676
0
3DFACE
10
-34.845062
20
-9.184584
30
51.825676
11
-34.845062
21
-9.184584
31
51.825676
12
-34.845062
22
-9.184584
32
51.825676
13
-34.845062
23
-9.184584
33
51.825676
0
3DFACE
10
-34.845062
20
-9.184584
30
51.825676
11
-34.845062
21
-9.184584
31
51.825676
12
-34.845062
22
-9.184584
32
51.825676
13
-34.845062
23
-9.184584
33
51.825676
0
3DFACE
10
-34.845062
20
-9.184584
30
51.825676
11
-34.845062
21
-9.184584
31
51.825676
12
-34.845062
22
-9.184584
32
51.825676
13
-34.845062
23
-9.184584
33
51.825676
0
3DFACE
10
-34.845062
20
-9.184584
30
51.825676
11
-34.845062
21
-9.184584
31
51.825676
12
-34.845062
22
-9.184584
32
51.825676
13
-34.845062
23
-9.184584
33
51.825676
0
3DFACE
10
-34.845062
20
-9.184584
30
51.825676
11
-34.845062
21
-9.184584
31
51.825676
12
-34.845062
22
-9.184584
32
51.825676
13
-34.845062
23
-9.184584
33
51.825676
0
3DFACE
10
-34.845062
20
-9.184584
30
51.825676
11
-34.845062
21
-9.184584
31
51.825676
12
-34.845062
22
-9.184584
32
51.825676
13
-34.845062
23
-9.184584
33
51.825676
0
3DFACE
10
-34.845062
20
-9.184584
30
51.825676
11
-34.845062
21
-9.184584
31
51.825676
12
-34.845062
22
-9.284584
32
51.825676
13
-34.845062
23
-9.284584
33
51.825676
0
3DFACE
10
-34.845062
20
-9.184584
30
51.825676
11
-34.845062
21
-9.184584
31
51.825676
12
-34.845062
22
-9.284584
32
51.825676
13
-34.845062
23
-9.284584
33
51.825676
0
3DFACE
10
-34.845062
20
-9.184584
30
51.825676
11
-34.845062
21
-9.184584
31
51.825676
12
-34.845062
22
-9.284584
32
51.825676
13
-34.845062
23
-9.284584
33
51.825676
0
3DFACE
10
-34.845062
20
-9.184584
30
51.825676
11
-34.845062
21
-9.184584
31
51.825676
12
-34.845062
22
-9.284584
32
51.825676
13
-34.845062
23
-9.284584
33
51.825676
0
3DFACE
10
-34.845062
20
-9.184584
30
51.825676
11
-34.845062
21
-9.184584
31
51.825676
12
-34.845062
22
-9.284584
32
51.825676
13
-34.845062
23
-9.284584
33
51.825676
0
3DFACE
10
-34.845062
20
-9.084583
30
51.825676
11
-34.845062
21
-9.184584
31
51.825676
12
-34.845062
22
-9.284584
32
51.825676
13
-34.845062
23
-9.284584
33
51.825676
0
3DFACE
10
-34.845062
20
-9.184584
30
51.825676
11
-34.845062
21
-9.184584
31
51.825676
12
-34.845062
22
-9.184584
32
51.825676
13
-34.845062
23
-9.184584
33
51.825676
0
3DFACE
10
-34.845062
20
-9.184584
30
51.825676
11
-34.845062
21
-9.184584
31
51.825676
12
-34.845062
22
-9.184584
32
51.825676
13
-34.845062
23
-9.184584
33
51.825676
0
3DFACE
10
-34.845062
20
-9.184584
30
51.825676
11
-34.845062
21
-9.184584
31
51.825676
12
-34.845062
22
-9.184584
32
51.825676
13
-34.845062
23
-9.184584
33
51.825676
0
3DFACE
10
-34.845062
20
-9.084583
30
51.825676
11
-34.845062
21
-9.184584
31
51.825676
12
-34.845062
22
-9.184584
32
51.825676
13
-34.845062
23
-9.184584
33
51.825676
0
3DFACE
10
-34.845062
20
-9.184584
30
51.825676
11
-34.845062
21
-9.284584
31
51.825676
12
-34.845062
22
-9.184584
32
51.825676
13
-34.845062
23
-9.184584
33
51.825676
0
3DFACE
10
-34.845062
20
-9.084583
30
51.825676
11
-34.845062
21
-9.184584
31
51.825676
12
-34.845062
22
-8.984583
32
51.825676
13
-34.845062
23
-8.984583
33
51.825676
0
3DFACE
10
-34.845062
20
-9.184584
30
51.825676
11
-34.845062
21
-9.084583
31
51.825676
12
-34.845062
22
-8.984583
32
51.825676
13
-34.845062
23
-8.984583
33
51.825676
0
3DFACE
10
-34.845062
20
-9.184584
30
51.825676
11
-34.845062
21
-9.184584
31
51.825676
12
-34.845062
22
-9.084583
32
51.825676
13
-34.845062
23
-9.084583
33
51.825676
0
3DFACE
10
-34.845062
20
-8.984583
30
51.825676
11
-34.845062
21
-9.184584
31
51.825676
12
-34.845062
22
-9.084583
32
51.825676
13
-34.845062
23
-9.084583
33
51.825676
0
3DFACE
10
-34.845062
20
-9.184584
30
51.825676
11
-34.845062
21
-9.184584
31
51.825676
12
-34.845062
22
-8.984583
32
51.825676
13
-34.845062
23
-8.984583
33
51.825676
0
3DFACE
10
-34.845062
20
-9.084583
30
51.825676
11
-34.845062
21
-9.184584
31
51.825676
12
-34.845062
22
-8.984583
32
51.825676
13
-34.845062
23
-8.984583
33
51.825676
0
3DFACE
10
-34.845062
20
-9.184584
30
51.825676
11
-34.845062
21
-9.184584
31
51.825676
12
-34.845062
22
-9.084583
32
51.825676
13
-34.845062
23
-9.084583
33
51.825676
0
3DFACE
10
-34.845062
20
-8.984583
30
51.825676
11
-34.845062
21
-9.184584
31
51.825676
12
-34.845062
22
-9.084583
32
51.825676
13
-34.845062
23
-9.084583
33
51.825676
0
3DFACE
10
-34.845062
20
-9.184584
30
51.825676
11
-34.845062
21
-9.184584
31
51.825676
12
-34.845062
22
-8.984583
32
51.825676
13
-34.845062
23
-8.984583
33
51.825676
0
3DFACE
10
-34.845062
20
-9.084583
30
51.825676
11
-34.845062
21
-9.184584
31
51.825676
12
-34.845062
22
-8.984583
32
51.825676
13
-34.845062
23
-8.984583
33
51.825676
0
3DFACE
10
-34.845062
20
-9.184584
30
51.825676
11
-34.845062
21
-9.184584
31
51.825676
12
-34.845062
22
-9.084583
32
51.825676
13
-34.845062
23
-9.084583
33
51.825676
0
3DFACE
10
-34.845062
20
-8.984583
30
51.825676
11
-34.845062
21
-9.184584
31
51.825676
12
-34.845062
22
-9.084583
32
51.825676
13
-34.845062
23
-9.084583
33
51.825676
0
3DFACE
10
-34.845062
20
-9.184584
30
51.825676
11
-34.845062
21
-9.284584
31
51.825676
12
-34.845062
22
-8.984583
32
51.825676
13
-34.845062
23
-8.984583
33
51.825676
0
3DFACE
10
-34.845062
20
-9.084583
30
51.825676
11
-34.845062
21
-9.184584
31
51.825676
12
-34.845062
22
-8.984583
32
51.825676
13
-34.845062
23
-8.984583
33
51.825676
0
3DFACE
10
-34.845062
20
-9.284584
30
51.825676
11
-34.845062
21
-9.084583
31
51.825676
12
-34.845062
22
-9.184584
32
51.825676
13
-34.845062
23
-9.184584
33
51.825676
0
3DFACE
10
-34.845062
20
-8.984583
30
51.825676
11
-34.845062
21
-9.284584
31
51.825676
12
-34.845062
22
-9.184584
32
51.825676
13
-34.845062
23
-9.184584
33
51.825676
0
3DFACE
10
-34.845062
20
-9.184584
30
51.825676
11
-34.845062
21
-9.184584
31
51.825676
12
-34.845062
22
-8.984583
32
51.825676
13
-34.845062
23
-8.984583
33
51.825676
0
3DFACE
10
-34.845062
20
-9.184584
30
51.825676
11
-34.845062
21
-9.184584
31
51.825676
12
-34.845062
22
-8.984583
32
51.825676
13
-34.845062
23
-8.984583
33
51.825676
0
3DFACE
10
-34.845062
20
-9.184584
30
51.825676
11
-34.845062
21
-8.984583
31
51.825676
12
-34.845062
22
-9.084583
32
51.825676
13
-34.845062
23
-9.084583
33
51.825676
0
3DFACE
10
-34.845062
20
-9.084583
30
51.825676
11
-34.845062
21
-9.184584
31
51.825676
12
-34.845062
22
-9.084583
32
51.825676
13
-34.845062
23
-9.084583
33
51.825676
0
3DFACE
10
-34.845062
20
-9.084583
30
51.825676
11
-34.845062
21
-9.084583
31
51.825676
12
-34.845062
22
-8.984583
32
51.825676
13
-34.845062
23
-8.984583
33
51.825676
0
3DFACE
10
-34.845062
20
-9.184584
30
51.825676
11
-34.845062
21
-9.084583
31
51.825676
12
-34.845062
22
-8.984583
32
51.825676
13
-34.845062
23
-8.984583
33
51.825676
0
3DFACE
10
-34.845062
20
-9.184584
30
51.825676
11
-34.845062
21
-8.984583
31
51.825676
12
-34.845062
22
-9.084583
32
51.825676
13
-34.845062
23
-9.084583
33
51.825676
0
3DFACE
10
-34.845062
20
-9.084583
30
51.825676
11
-34.845062
21
-9.184584
31
51.825676
12
-34.845062
22
-9.084583
32
51.825676
13
-34.845062
23
-9.084583
33
51.825676
0
3DFACE
10
-34.845062
20
-9.084583
30
51.825676
11
-34.845062
21
-9.084583
31
51.825676
12
-34.845062
22
-8.984583
32
51.825676
13
-34.845062
23
-8.984583
33
51.825676
0
3DFACE
10
-34.845062
20
-9.184584
30
51.825676
11
-34.845062
21
-9.084583
31
51.825676
12
-34.845062
22
-8.984583
32
51.825676
13
-34.845062
23
-8.984583
33
51.825676
0
3DFACE
10
-34.845062
20
-9.184584
30
51.825676
11
-34.845062
21
-8.984583
31
51.825676
12
-34.845062
22
-9.184584
32
51.825676
13
-34.845062
23
-9.184584
33
51.825676
0
3DFACE
10
-34.845062
20
-9.084583
30
51.825676
11
-34.845062
21
-9.184584
31
51.825676
12
-34.845062
22
-9.184584
32
51.825676
13
-34.845062
23
-9.184584
33
51.825676
0
3DFACE
10
-34.845062
20
-9.084583
30
51.825676
11
-34.845062
21
-9.184584
31
51.825676
12
-34.845062
22
-9.084583
32
51.825676
13
-34.845062
23
-9.084583
33
51.825676
0
3DFACE
10
-34.845062
20
-9.184584
30
51.825676
11
-34.845062
21
-9.084583
31
51.825676
12
-34.845062
22
-9.084583
32
51.825676
13
-34.845062
23
-9.084583
33
51.825676
0
3DFACE
10
-34.845062
20
-9.184584
30
51.825676
11
-34.845062
21
-9.084583
31
51.825676
12
-34.845062
22
-9.184584
32
51.825676
13
-34.845062
23
-9.184584
33
51.825676
0
3DFACE
10
-34.845062
20
-9.184584
30
51.825676
11
-34.845062
21
-9.184584
31
51.825676
12
-34.845062
22
-9.184584
32
51.825676
13
-34.845062
23
-9.184584
33
51.825676
0
3DFACE
10
-34.845062
20
-9.184584
30
51.825676
11
-34.845062
21
-9.084583
31
51.825676
12
-34.845062
22
-9.284584
32
51.825676
13
-34.845062
23
-9.284584
33
51.825676
0
3DFACE
10
-34.845062
20
-9.184584
30
51.825676
11
-34.845062
21
-9.284584
31
51.825676
12
-34.845062
22
-8.984583
32
51.825676
13
-34.845062
23
-8.984583
33
51.825676
0
3DFACE
10
-34.845062
20
-9.184584
30
51.825676
11
-34.845062
21
-9.084583
31
51.825676
12
-34.845062
22
-9.184584
32
51.825676
13
-34.845062
23
-9.184584
33
51.825676
0
3DFACE
10
-34.845062
20
-9.184584
30
51.825676
11
-34.845062
21
-9.184584
31
51.825676
12
-34.845062
22
-9.284584
32
51.825676
13
-34.845062
23
-9.284584
33
51.825676
0
3DFACE
10
-34.845062
20
-9.184584
30
51.825676
11
-34.845062
21
-9.184584
31
51.825676
12
-34.845062
22
-9.084583
32
51.825676
13
-34.845062
23
-9.084583
33
51.825676
0
3DFACE
10
-34.845062
20
-9.184584
30
51.825676
11
-34.845062
21
-8.984583
31
51.825676
12
-34.845062
22
-9.084583
32
51.825676
13
-34.845062
23
-9.084583
33
51.825676
0
3DFACE
10
-34.845062
20
-9.184584
30
51.825676
11
-34.845062
21
-9.184584
31
51.825676
12
-34.845062
22
-9.184584
32
51.825676
13
-34.845062
23
-9.184584
33
51.825676
0
3DFACE
10
-34.845062
20
-9.184584
30
51.825676
11
-34.845062
21
-8.984583
31
51.825676
12
-34.845062
22
-9.084583
32
51.825676
13
-34.845062
23
-9.084583
33
51.825676
0
3DFACE
10
-34.845062
20
-9.184584
30
51.825676
11
-34.845062
21
-9.184584
31
51.825676
12
-34.845062
22
-9.084583
32
51.825676
13
-34.845062
23
-9.084583
33
51.825676
0
3DFACE
10
-34.845062
20
-8.984583
30
51.825676
11
-34.845062
21
-9.084583
31
51.825676
12
-34.845062
22
-9.184584
32
51.825676
13
-34.845062
23
-9.184584
33
51.825676
0
3DFACE
10
-34.845062
20
-9.084583
30
51.825676
11
-34.845062
21
-8.984583
31
51.825676
12
-34.845062
22
-9.184584
32
51.825676
13
-34.845062
23
-9.184584
33
51.825676
0
3DFACE
10
-34.845062
20
-9.184584
30
51.825676
11
-34.845062
21
-9.084583
31
51.825676
12
-34.845062
22
-8.984583
32
51.825676
13
-34.845062
23
-8.984583
33
51.825676
0
3DFACE
10
-34.845062
20
-9.084583
30
51.825676
11
-34.845062
21
-9.184584
31
51.825676
12
-34.845062
22
-8.984583
32
51.825676
13
-34.845062
23
-8.984583
33
51.825676
0
3DFACE
10
-34.845062
20
-9.184584
30
51.825676
11
-34.845062
21
-9.084583
31
51.825676
12
-34.845062
22
-8.984583
32
51.825676
13
-34.845062
23
-8.984583
33
51.825676
0
3DFACE
10
-34.845062
20
-9.284584
30
51.825676
11
-34.845062
21
-9.184584
31
51.825676
12
-34.845062
22
-8.984583
32
51.825676
13
-34.845062
23
-8.984583
33
51.825676
0
3DFACE
10
-34.845062
20
-9.084583
30
51.825676
11
-34.845062
21
-9.184584
31
51.825676
12
-34.845062
22
-8.984583
32
51.825676
13
-34.845062
23
-8.984583
33
51.825676
0
3DFACE
10
-34.845062
20
-9.184584
30
51.825676
11
-34.845062
21
-9.084583
31
51.825676
12
-34.845062
22
-8.984583
32
51.825676
13
-34.845062
23
-8.984583
33
51.825676
0
3DFACE
10
-34.845062
20
-9.284584
30
51.825676
11
-34.845062
21
-9.184584
31
51.825676
12
-34.845062
22
-9.084583
32
51.825676
13
-34.845062
23
-9.084583
33
51.825676
0
3DFACE
10
-34.845062
20
-8.984583
30
51.825676
11
-34.845062
21
-9.284584
31
51.825676
12
-34.845062
22
-9.084583
32
51.825676
13
-34.845062
23
-9.084583
33
51.825676
0
3DFACE
10
-34.845062
20
-9.084583
30
51.825676
11
-34.845062
21
-8.984583
31
51.825676
12
-34.845062
22
-9.184584
32
51.825676
13
-34.845062
23
-9.184584
33
51.825676
0
3DFACE
10
-34.845062
20
-9.284584
30
51.825676
11
-34.845062
21
-9.084583
31
51.825676
12
-34.845062
22
-9.184584
32
51.825676
13
-34.845062
23
-9.184584
33
51.825676
0
3DFACE
10
-34.845062
20
-9.284584
30
51.825676
11
-34.845062
21
-8.984583
31
51.825676
12
-34.845062
22
-9.084583
32
51.825676
13
-34.845062
23
-9.084583
33
51.825676
0
3DFACE
10
-34.845062
20
-9.184584
30
51.825676
11
-34.845062
21
-9.284584
31
51.825676
12
-34.845062
22
-9.084583
32
51.825676
13
-34.845062
23
-9.084583
33
51.825676
0
3DFACE
10
-34.845062
20
-9.084583
30
51.825676
11
-34.845062
21
-9.084583
31
51.825676
12
-34.845062
22
-8.984583
32
51.825676
13
-34.845062
23
-8.984583
33
51.825676
0
3DFACE
10
-34.845062
20
-9.184584
30
51.825676
11
-34.845062
21
-9.084583
31
51.825676
12
-34.845062
22
-8.984583
32
51.825676
13
-34.845062
23
-8.984583
33
51.825676
0
3DFACE
10
-34.845062
20
-9.084583
30
51.825676
11
-34.845062
21
-9.084583
31
51.825676
12
-34.845062
22
-9.184584
32
51.825676
13
-34.845062
23
-9.184584
33
51.825676
0
3DFACE
10
-34.845062
20
-8.984583
30
51.825676
11
-34.845062
21
-9.084583
31
51.825676
12
-34.845062
22
-9.184584
32
51.825676
13
-34.845062
23
-9.184584
33
51.825676
0
3DFACE
10
-34.845062
20
-9.084583
30
51.825676
11
-34.845062
21
-9.084583
31
51.825676
12
-34.845062
22
-8.984583
32
51.825676
13
-34.845062
23
-8.984583
33
51.825676
0
3DFACE
10
-34.845062
20
-9.184584
30
51.825676
11
-34.845062
21
-9.084583
31
51.825676
12
-34.845062
22
-8.984583
32
51.825676
13
-34.845062
23
-8.984583
33
51.825676
0
3DFACE
10
-34.845062
20
-9.084583
30
51.825676
11
-34.845062
21
-9.084583
31
51.825676
12
-34.845062
22
-9.184584
32
51.825676
13
-34.845062
23
-9.184584
33
51.825676
0
3DFACE
10
-34.845062
20
-8.984583
30
51.825676
11
-34.845062
21
-9.084583
31
51.825676
12
-34.845062
22
-9.184584
32
51.825676
13
-34.845062
23
-9.184584
33
51.825676
0
3DFACE
10
-34.845062
20
-9.084583
30
51.825676
11
-34.845062
21
-9.084583
31
51.825676
12
-34.845062
22
-8.984583
32
51.825676
13
-34.845062
23
-8.984583
33
51.825676
0
3DFACE
10
-34.845062
20
-9.184584
30
51.825676
11
-34.845062
21
-9.084583
31
51.825676
12
-34.845062
22
-8.984583
32
51.825676
13
-34.845062
23
-8.984583
33
51.825676
0
3DFACE
10
-34.845062
20
-9.084583
30
51.825676
11
-34.845062
21
-9.084583
31
51.825676
12
-34.845062
22
-9.184584
32
51.825676
13
-34.845062
23
-9.184584
33
51.825676
0
3DFACE
10
-34.845062
20
-8.984583
30
51.825676
11
-34.845062
21
-9.084583
31
51.825676
12
-34.845062
22
-9.184584
32
51.825676
13
-34.845062
23
-9.184584
33
51.825676
0
3DFACE
10
-34.845062
20
-9.084583
30
51.825676
11
-34.845062
21
-9.084583
31
51.825676
12
-34.845062
22
-8.984583
32
51.825676
13
-34.845062
23
-8.984583
33
51.825676
0
3DFACE
10
-34.845062
20
-9.084583
30
51.825676
11
-34.845062
21
-9.084583
31
51.825676
12
-34.845062
22
-8.984583
32
51.825676
13
-34.845062
23
-8.984583
33
51.825676
0
3DFACE
10
-34.845062
20
-9.084583
30
51.825676
11
-34.845062
21
-9.084583
31
51.825676
12
-34.845062
22
-8.984583
32
51.825676
13
-34.845062
23
-8.984583
33
51.825676
0
3DFACE
10
-34.845062
20
-9.084583
30
51.825676
11
-34.845062
21
-9.084583
31
51.825676
12
-34.845062
22
-8.984583
32
51.825676
13
-34.845062
23
-8.984583
33
51.825676
0
3DFACE
10
-34.845062
20
-9.084583
30
51.825676
11
-34.845062
21
-9.084583
31
51.825676
12
-34.845062
22
-8.984583
32
51.825676
13
-34.845062
23
-8.984583
33
51.825676
0
3DFACE
10
-34.845062
20
-9.084583
30
51.825676
11
-34.845062
21
-9.084583
31
51.825676
12
-34.845062
22
-8.984583
32
51.825676
13
-34.845062
23
-8.984583
33
51.825676
0
3DFACE
10
-34.845062
20
-9.084583
30
51.825676
11
-34.845062
21
-9.084583
31
51.825676
12
-34.845062
22
-8.984583
32
51.825676
13
-34.845062
23
-8.984583
33
51.825676
0
3DFACE
10
-34.845062
20
-9.184584
30
51.825676
11
-34.845062
21
-9.084583
31
51.825676
12
-34.845062
22
-8.984583
32
51.825676
13
-34.845062
23
-8.984583
33
51.825676
0
3DFACE
10
-34.845062
20
-9.084583
30
51.825676
11
-34.845062
21
-9.084583
31
51.825676
12
-34.845062
22
-9.184584
32
51.825676
13
-34.845062
23
-9.184584
33
51.825676
0
3DFACE
10
-34.845062
20
-8.984583
30
51.825676
11
-34.845062
21
-9.084583
31
51.825676
12
-34.845062
22
-9.184584
32
51.825676
13
-34.845062
23
-9.184584
33
51.825676
0
3DFACE
10
-34.845062
20
-9.084583
30
51.825676
11
-34.845062
21
-9.084583
31
51.825676
12
-34.845062
22
-8.984583
32
51.825676
13
-34.845062
23
-8.984583
33
51.825676
0
3DFACE
10
-34.845062
20
-9.084583
30
51.825676
11
-34.845062
21
-9.084583
31
51.825676
12
-34.845062
22
-8.984583
32
51.825676
13
-34.845062
23
-8.984583
33
51.825676
0
3DFACE
10
-34.845062
20
-9.084583
30
51.825676
11
-34.845062
21
-9.084583
31
51.825676
12
-34.845062
22
-8.984583
32
51.825676
13
-34.845062
23
-8.984583
33
51.825676
0
3DFACE
10
-34.845062
20
-9.084583
30
51.825676
11
-34.845062
21
-9.084583
31
51.825676
12
-34.845062
22
-8.984583
32
51.825676
13
-34.845062
23
-8.984583
33
51.825676
0
3DFACE
10
-34.845062
20
-9.084583
30
51.825676
11
-34.845062
21
-9.084583
31
51.825676
12
-34.845062
22
-8.984583
32
51.825676
13
-34.845062
23
-8.984583
33
51.825676
0
3DFACE
10
-34.845062
20
-9.084583
30
51.825676
11
-34.845062
21
-9.084583
31
51.825676
12
-34.845062
22
-8.984583
32
51.825676
13
-34.845062
23
-8.984583
33
51.825676
0
3DFACE
10
-34.845062
20
-9.084583
30
51.825676
11
-34.845062
21
-9.084583
31
51.825676
12
-34.845062
22
-8.984583
32
51.825676
13
-34.845062
23
-8.984583
33
51.825676
0
3DFACE
10
-34.845062
20
-9.184584
30
51.825676
11
-34.845062
21
-9.084583
31
51.825676
12
-34.845062
22
-8.984583
32
51.825676
13
-34.845062
23
-8.984583
33
51.825676
0
3DFACE
10
-34.845062
20
-9.084583
30
51.825676
11
-34.845062
21
-9.084583
31
51.825676
12
-34.845062
22
-9.184584
32
51.825676
13
-34.845062
23
-9.184584
33
51.825676
0
3DFACE
10
-34.845062
20
-8.984583
30
51.825676
11
-34.845062
21
-9.084583
31
51.825676
12
-34.845062
22
-9.184584
32
51.825676
13
-34.845062
23
-9.184584
33
51.825676
0
3DFACE
10
-34.845062
20
-9.084583
30
51.825676
11
-34.845062
21
-9.084583
31
51.825676
12
-34.845062
22
-8.984583
32
51.825676
13
-34.845062
23
-8.984583
33
51.825676
0
3DFACE
10
-34.845062
20
-9.184584
30
51.825676
11
-34.845062
21
-9.084583
31
51.825676
12
-34.845062
22
-8.984583
32
51.825676
13
-34.845062
23
-8.984583
33
51.825676
0
3DFACE
10
-34.845062
20
-9.084583
30
51.825676
11
-34.845062
21
-9.084583
31
51.825676
12
-34.845062
22
-9.184584
32
51.825676
13
-34.845062
23
-9.184584
33
51.825676
0
3DFACE
10
-34.845062
20
-8.984583
30
51.825676
11
-34.845062
21
-9.084583
31
51.825676
12
-34.845062
22
-9.184584
32
51.825676
13
-34.845062
23
-9.184584
33
51.825676
0
3DFACE
10
-34.845062
20
-9.084583
30
51.825676
11
-34.845062
21
-9.084583
31
51.825676
12
-34.845062
22
-8.984583
32
51.825676
13
-34.845062
23
-8.984583
33
51.825676
0
3DFACE
10
-34.845062
20
-9.184584
30
51.825676
11
-34.845062
21
-9.084583
31
51.825676
12
-34.845062
22
-8.984583
32
51.825676
13
-34.845062
23
-8.984583
33
51.825676
0
3DFACE
10
-34.845062
20
-9.084583
30
51.825676
11
-34.845062
21
-9.084583
31
51.825676
12
-34.845062
22
-9.184584
32
51.825676
13
-34.845062
23
-9.184584
33
51.825676
0
3DFACE
10
-34.845062
20
-8.984583
30
51.825676
11
-34.845062
21
-9.084583
31
51.825676
12
-34.845062
22
-9.184584
32
51.825676
13
-34.845062
23
-9.184584
33
51.825676
0
3DFACE
10
-34.845062
20
-9.084583
30
51.825676
11
-34.845062
21
-9.084583
31
51.825676
12
-34.845062
22
-8.984583
32
51.825676
13
-34.845062
23
-8.984583
33
51.825676
0
3DFACE
10
-34.845062
20
-9.084583
30
51.825676
11
-34.845062
21
-9.084583
31
51.825676
12
-34.845062
22
-8.984583
32
51.825676
13
-34.845062
23
-8.984583
33
51.825676
0
3DFACE
10
-34.845062
20
-9.084583
30
51.825676
11
-34.845062
21
-9.084583
31
51.825676
12
-34.845062
22
-8.984583
32
51.825676
13
-34.845062
23
-8.984583
33
51.825676
0
3DFACE
10
-34.845062
20
-9.084583
30
51.825676
11
-34.845062
21
-9.084583
31
51.825676
12
-34.845062
22
-8.984583
32
51.825676
13
-34.845062
23
-8.984583
33
51.825676
0
3DFACE
10
-34.845062
20
-9.084583
30
51.825676
11
-34.845062
21
-9.084583
31
51.825676
12
-34.845062
22
-8.984583
32
51.825676
13
-34.845062
23
-8.984583
33
51.825676
0
3DFACE
10
-34.845062
20
-9.084583
30
51.825676
11
-34.845062
21
-9.084583
31
51.825676
12
-34.845062
22
-8.984583
32
51.825676
13
-34.845062
23
-8.984583
33
51.825676
0
3DFACE
10
-34.845062
20
-9.084583
30
51.825676
11
-34.845062
21
-9.084583
31
51.825676
12
-34.845062
22
-8.984583
32
51.825676
13
-34.845062
23
-8.984583
33
51.825676
0
3DFACE
10
-34.845062
20
-9.184584
30
51.825676
11
-34.845062
21
-9.084583
31
51.825676
12
-34.845062
22
-8.984583
32
51.825676
13
-34.845062
23
-8.984583
33
51.825676
0
3DFACE
10
-34.845062
20
-9.084583
30
51.825676
11
-34.845062
21
-9.084583
31
51.825676
12
-34.845062
22
-9.184584
32
51.825676
13
-34.845062
23
-9.184584
33
51.825676
0
3DFACE
10
-34.845062
20
-8.984583
30
51.825676
11
-34.845062
21
-9.084583
31
51.825676
12
-34.845062
22
-9.184584
32
51.825676
13
-34.845062
23
-9.184584
33
51.825676
0
3DFACE
10
-34.845062
20
-9.084583
30
51.825676
11
-34.845062
21
-9.084583
31
51.825676
12
-34.845062
22
-8.984583
32
51.825676
13
-34.845062
23
-8.984583
33
51.825676
0
3DFACE
10
-34.845062
20
-9.084583
30
51.825676
11
-34.845062
21
-9.084583
31
51.825676
12
-34.845062
22
-8.984583
32
51.825676
13
-34.845062
23
-8.984583
33
51.825676
0
3DFACE
10
-34.845062
20
-9.084583
30
51.825676
11
-34.845062
21
-9.084583
31
51.825676
12
-34.845062
22
-8.984583
32
51.825676
13
-34.845062
23
-8.984583
33
51.825676
0
3DFACE
10
-34.845062
20
-9.084583
30
51.825676
11
-34.845062
21
-9.084583
31
51.825676
12
-34.845062
22
-8.984583
32
51.825676
13
-34.845062
23
-8.984583
33
51.825676
0
3DFACE
10
-34.845062
20
-9.084583
30
51.825676
11
-34.845062
21
-9.084583
31
51.825676
12
-34.845062
22
-8.984583
32
51.825676
13
-34.845062
23
-8.984583
33
51.825676
0
3DFACE
10
-34.845062
20
-9.084583
30
51.825676
11
-34.845062
21
-9.084583
31
51.825676
12
-34.845062
22
-8.984583
32
51.825676
13
-34.845062
23
-8.984583
33
51.825676
0
3DFACE
10
-34.845062
20
-9.084583
30
51.825676
11
-34.845062
21
-9.084583
31
51.825676
12
-34.845062
22
-8.984583
32
51.825676
13
-34.845062
23
-8.984583
33
51.825676
0
3DFACE
10
-34.845062
20
-9.184584
30
51.825676
11
-34.845062
21
-9.084583
31
51.825676
12
-34.845062
22
-8.984583
32
51.825676
13
-34.845062
23
-8.984583
33
51.825676
0
3DFACE
10
-34.845062
20
-9.084583
30
51.825676
11
-34.845062
21
-9.084583
31
51.825676
12
-34.845062
22
-9.184584
32
51.825676
13
-34.845062
23
-9.184584
33
51.825676
0
3DFACE
10
-34.845062
20
-8.984583
30
51.825676
11
-34.845062
21
-9.084583
31
51.825676
12
-34.845062
22
-9.184584
32
51.825676
13
-34.845062
23
-9.184584
33
51.825676
0
3DFACE
10
-34.845062
20
-9.084583
30
51.825676
11
-34.845062
21
-9.084583
31
51.825676
12
-34.845062
22
-8.984583
32
51.825676
13
-34.845062
23
-8.984583
33
51.825676
0
3DFACE
10
-34.845062
20
-9.184584
30
51.825676
11
-34.845062
21
-9.084583
31
51.825676
12
-34.845062
22
-8.984583
32
51.825676
13
-34.845062
23
-8.984583
33
51.825676
0
3DFACE
10
-34.845062
20
-9.084583
30
51.825676
11
-34.845062
21
-9.084583
31
51.825676
12
-34.845062
22
-9.184584
32
51.825676
13
-34.845062
23
-9.184584
33
51.825676
0
3DFACE
10
-34.845062
20
-8.984583
30
51.825676
11
-34.845062
21
-9.084583
31
51.825676
12
-34.845062
22
-9.184584
32
51.825676
13
-34.845062
23
-9.184584
33
51.825676
0
3DFACE
10
-34.845062
20
-9.084583
30
51.825676
11
-34.845062
21
-9.084583
31
51.825676
12
-34.845062
22
-8.984583
32
51.825676
13
-34.845062
23
-8.984583
33
51.825676
0
3DFACE
10
-34.845062
20
-9.184584
30
51.825676
11
-34.845062
21
-9.084583
31
51.825676
12
-34.845062
22
-8.984583
32
51.825676
13
-34.845062
23
-8.984583
33
51.825676
0
3DFACE
10
-34.845062
20
-9.084583
30
51.825676
11
-34.845062
21
-9.084583
31
51.825676
12
-34.845062
22
-9.184584
32
51.825676
13
-34.845062
23
-9.184584
33
51.825676
0
3DFACE
10
-34.845062
20
-8.984583
30
51.825676
11
-34.845062
21
-9.084583
31
51.825676
12
-34.845062
22
-9.184584
32
51.825676
13
-34.845062
23
-9.184584
33
51.825676
0
3DFACE
10
-34.845062
20
-9.084583
30
51.825676
11
-34.845062
21
-9.084583
31
51.825676
12
-34.845062
22
-8.984583
32
51.825676
13
-34.845062
23
-8.984583
33
51.825676
0
3DFACE
10
-34.845062
20
-9.084583
30
51.825676
11
-34.845062
21
-9.084583
31
51.825676
12
-34.845062
22
-8.984583
32
51.825676
13
-34.845062
23
-8.984583
33
51.825676
0
3DFACE
10
-34.845062
20
-9.084583
30
51.825676
11
-34.845062
21
-9.084583
31
51.825676
12
-34.845062
22
-8.984583
32
51.825676
13
-34.845062
23
-8.984583
33
51.825676
0
3DFACE
10
-34.845062
20
-9.084583
30
51.825676
11
-34.845062
21
-9.084583
31
51.825676
12
-34.845062
22
-8.984583
32
51.825676
13
-34.845062
23
-8.984583
33
51.825676
0
3DFACE
10
-34.845062
20
-9.084583
30
51.825676
11
-34.845062
21
-9.084583
31
51.825676
12
-34.845062
22
-8.984583
32
51.825676
13
-34.845062
23
-8.984583
33
51.825676
0
3DFACE
10
-34.845062
20
-9.084583
30
51.825676
11
-34.845062
21
-9.084583
31
51.825676
12
-34.845062
22
-8.984583
32
51.825676
13
-34.845062
23
-8.984583
33
51.825676
0
3DFACE
10
-34.845062
20
-9.084583
30
51.825676
11
-34.845062
21
-9.084583
31
51.825676
12
-34.845062
22
-8.984583
32
51.825676
13
-34.845062
23
-8.984583
33
51.825676
0
3DFACE
10
-34.845062
20
-9.184584
30
51.825676
11
-34.845062
21
-9.084583
31
51.825676
12
-34.845062
22
-8.984583
32
51.825676
13
-34.845062
23
-8.984583
33
51.825676
0
3DFACE
10
-34.845062
20
-9.084583
30
51.825676
11
-34.845062
21
-9.084583
31
51.825676
12
-34.845062
22
-9.184584
32
51.825676
13
-34.845062
23
-9.184584
33
51.825676
0
3DFACE
10
-34.845062
20
-8.984583
30
51.825676
11
-34.845062
21
-9.084583
31
51.825676
12
-34.845062
22
-9.184584
32
51.825676
13
-34.845062
23
-9.184584
33
51.825676
0
3DFACE
10
-34.845062
20
-9.084583
30
51.825676
11
-34.845062
21
-9.084583
31
51.825676
12
-34.845062
22
-8.984583
32
51.825676
13
-34.845062
23
-8.984583
33
51.825676
0
3DFACE
10
-34.845062
20
-9.084583
30
51.825676
11
-34.845062
21
-9.084583
31
51.825676
12
-34.845062
22
-8.984583
32
51.825676
13
-34.845062
23
-8.984583
33
51.825676
0
3DFACE
10
-34.845062
20
-9.084583
30
51.825676
11
-34.845062
21
-9.084583
31
51.825676
12
-34.845062
22
-8.984583
32
51.825676
13
-34.845062
23
-8.984583
33
51.825676
0
3DFACE
10
-34.845062
20
-9.084583
30
51.825676
11
-34.845062
21
-9.084583
31
51.825676
12
-34.845062
22
-8.984583
32
51.825676
13
-34.845062
23
-8.984583
33
51.825676
0
3DFACE
10
-34.845062
20
-9.084583
30
51.825676
11
-34.845062
21
-9.084583
31
51.825676
12
-34.845062
22
-8.984583
32
51.825676
13
-34.845062
23
-8.984583
33
51.825676
0
3DFACE
10
-34.845062
20
-9.084583
30
51.825676
11
-34.845062
21
-9.084583
31
51.825676
12
-34.845062
22
-8.984583
32
51.825676
13
-34.845062
23
-8.984583
33
51.825676
0
3DFACE
10
-34.845062
20
-9.084583
30
51.825676
11
-34.845062
21
-9.084583
31
51.825676
12
-34.845062
22
-8.984583
32
51.825676
13
-34.845062
23
-8.984583
33
51.825676
0
3DFACE
10
-34.845062
20
-9.184584
30
51.825676
11
-34.845062
21
-9.084583
31
51.825676
12
-34.845062
22
-8.984583
32
51.825676
13
-34.845062
23
-8.984583
33
51.825676
0
3DFACE
10
-34.845062
20
-9.084583
30
51.825676
11
-34.845062
21
-9.084583
31
51.825676
12
-34.845062
22
-9.184584
32
51.825676
13
-34.845062
23
-9.184584
33
51.825676
0
3DFACE
10
-34.845062
20
-8.984583
30
51.825676
11
-34.845062
21
-9.084583
31
51.825676
12
-34.845062
22
-9.184584
32
51.825676
13
-34.845062
23
-9.184584
33
51.825676
0
3DFACE
10
-34.845062
20
-9.084583
30
51.825676
11
-34.845062
21
-9.084583
31
51.825676
12
-34.845062
22
-8.984583
32
51.825676
13
-34.845062
23
-8.984583
33
51.825676
0
3DFACE
10
-34.845062
20
-9.184584
30
51.825676
11
-34.845062
21
-9.084583
31
51.825676
12
-34.845062
22
-8.984583
32
51.825676
13
-34.845062
23
-8.984583
33
51.825676
0
3DFACE
10
-34.845062
20
-9.084583
30
51.825676
11
-34.845062
21
-9.084583
31
51.825676
12
-34.845062
22
-9.184584
32
51.825676
13
-34.845062
23
-9.184584
33
51.825676
0
3DFACE
10
-34.845062
20
-8.984583
30
51.825676
11
-34.845062
21
-9.084583
31
51.825676
12
-34.845062
22
-9.184584
32
51.825676
13
-34.845062
23
-9.184584
33
51.825676
0
3DFACE
10
-34.845062
20
-9.084583
30
51.825676
11
-34.845062
21
-9.084583
31
51.825676
12
-34.845062
22
-8.984583
32
51.825676
13
-34.845062
23
-8.984583
33
51.825676
0
3DFACE
10
-34.845062
20
-9.184584
30
51.825676
11
-34.845062
21
-9.084583
31
51.825676
12
-34.845062
22
-8.984583
32
51.825676
13
-34.845062
23
-8.984583
33
51.825676
0
3DFACE
10
-34.845062
20
-9.084583
30
51.825676
11
-34.845062
21
-9.084583
31
51.825676
12
-34.845062
22
-9.184584
32
51.825676
13
-34.845062
23
-9.184584
33
51.825676
0
3DFACE
10
-34.845062
20
-8.984583
30
51.825676
11
-34.845062
21
-9.084583
31
51.825676
12
-34.845062
22
-9.184584
32
51.825676
13
-34.845062
23
-9.184584
33
51.825676
0
3DFACE
10
-34.845062
20
-9.084583
30
51.825676
11
-34.845062
21
-9.084583
31
51.825676
12
-34.845062
22
-8.984583
32
51.825676
13
-34.845062
23
-8.984583
33
51.825676
0
3DFACE
10
-34.845062
20
-9.084583
30
51.825676
11
-34.845062
21
-9.084583
31
51.825676
12
-34.845062
22
-8.984583
32
51.825676
13
-34.845062
23
-8.984583
33
51.825676
0
3DFACE
10
-34.845062
20
-9.084583
30
51.825676
11
-34.845062
21
-9.084583
31
51.825676
12
-34.845062
22
-8.984583
32
51.825676
13
-34.845062
23
-8.984583
33
51.825676
0
3DFACE
10
-34.845062
20
-9.084583
30
51.825676
11
-34.845062
21
-9.084583
31
51.825676
12
-34.845062
22
-8.984583
32
51.825676
13
-34.845062
23
-8.984583
33
51.825676
0
3DFACE
10
-34.845062
20
-9.084583
30
51.825676
11
-34.845062
21
-9.084583
31
51.825676
12
-34.845062
22
-8.984583
32
51.825676
13
-34.845062
23
-8.984583
33
51.825676
0
3DFACE
10
-34.845062
20
-9.084583
30
51.825676
11
-34.845062
21
-9.084583
31
51.825676
12
-34.845062
22
-8.984583
32
51.825676
13
-34.845062
23
-8.984583
33
51.825676
0
3DFACE
10
-34.845062
20
-9.084583
30
51.825676
11
-34.845062
21
-9.084583
31
51.825676
12
-34.845062
22
-8.984583
32
51.825676
13
-34.845062
23
-8.984583
33
51.825676
0
3DFACE
10
-34.845062
20
-9.184584
30
51.825676
11
-34.845062
21
-9.084583
31
51.825676
12
-34.845062
22
-8.984583
32
51.825676
13
-34.845062
23
-8.984583
33
51.825676
0
3DFACE
10
-34.845062
20
-9.084583
30
51.825676
11
-34.845062
21
-9.084583
31
51.825676
12
-34.845062
22
-9.184584
32
51.825676
13
-34.845062
23
-9.184584
33
51.825676
0
3DFACE
10
-34.845062
20
-8.984583
30
51.825676
11
-34.845062
21
-9.084583
31
51.825676
12
-34.845062
22
-9.184584
32
51.825676
13
-34.845062
23
-9.184584
33
51.825676
0
3DFACE
10
-34.845062
20
-9.084583
30
51.825676
11
-34.845062
21
-9.084583
31
51.825676
12
-34.845062
22
-8.984583
32
51.825676
13
-34.845062
23
-8.984583
33
51.825676
0
3DFACE
10
-34.845062
20
-9.084583
30
51.825676
11
-34.845062
21
-9.084583
31
51.825676
12
-34.845062
22
-8.984583
32
51.825676
13
-34.845062
23
-8.984583
33
51.825676
0
3DFACE
10
-34.845062
20
-9.084583
30
51.825676
11
-34.845062
21
-9.084583
31
51.825676
12
-34.845062
22
-8.984583
32
51.825676
13
-34.845062
23
-8.984583
33
51.825676
0
3DFACE
10
-34.845062
20
-9.084583
30
51.825676
11
-34.845062
21
-9.084583
31
51.825676
12
-34.845062
22
-8.984583
32
51.825676
13
-34.845062
23
-8.984583
33
51.825676
0
3DFACE
10
-34.845062
20
-9.084583
30
51.825676
11
-34.845062
21
-9.084583
31
51.825676
12
-34.845062
22
-8.984583
32
51.825676
13
-34.845062
23
-8.984583
33
51.825676
0
3DFACE
10
-34.845062
20
-9.084583
30
51.825676
11
-34.845062
21
-9.084583
31
51.825676
12
-34.845062
22
-8.984583
32
51.825676
13
-34.845062
23
-8.984583
33
51.825676
0
3DFACE
10
-34.845062
20
-9.084583
30
51.825676
11
-34.845062
21
-9.084583
31
51.825676
12
-34.845062
22
-8.984583
32
51.825676
13
-34.845062
23
-8.984583
33
51.825676
0
3DFACE
10
-34.845062
20
-9.184584
30
51.825676
11
-34.845062
21
-9.084583
31
51.825676
12
-34.845062
22
-8.984583
32
51.825676
13
-34.845062
23
-8.984583
33
51.825676
0
3DFACE
10
-34.845062
20
-9.084583
30
51.825676
11
-34.845062
21
-9.084583
31
51.825676
12
-34.845062
22
-9.184584
32
51.825676
13
-34.845062
23
-9.184584
33
51.825676
0
3DFACE
10
-34.845062
20
-8.984583
30
51.825676
11
-34.845062
21
-9.084583
31
51.825676
12
-34.845062
22
-9.184584
32
51.825676
13
-34.845062
23
-9.184584
33
51.825676
0
3DFACE
10
-34.845062
20
-9.084583
30
51.825676
11
-34.845062
21
-9.084583
31
51.825676
12
-34.845062
22
-8.984583
32
51.825676
13
-34.845062
23
-8.984583
33
51.825676
0
3DFACE
10
-34.845062
20
-9.184584
30
51.825676
11
-34.845062
21
-9.084583
31
51.825676
12
-34.845062
22
-8.984583
32
51.825676
13
-34.845062
23
-8.984583
33
51.825676
0
3DFACE
10
-34.845062
20
-9.084583
30
51.825676
11
-34.845062
21
-9.084583
31
51.825676
12
-34.845062
22
-9.184584
32
51.825676
13
-34.845062
23
-9.184584
33
51.825676
0
3DFACE
10
-34.845062
20
-8.984583
30
51.825676
11
-34.845062
21
-9.084583
31
51.825676
12
-34.845062
22
-9.184584
32
51.825676
13
-34.845062
23
-9.184584
33
51.825676
0
3DFACE
10
-34.845062
20
-9.084583
30
51.825676
11
-34.845062
21
-9.084583
31
51.825676
12
-34.845062
22
-8.984583
32
51.825676
13
-34.845062
23
-8.984583
33
51.825676
0
3DFACE
10
-34.845062
20
-9.184584
30
51.825676
11
-34.845062
21
-9.084583
31
51.825676
12
-34.845062
22
-8.984583
32
51.825676
13
-34.845062
23
-8.984583
33
51.825676
0
3DFACE
10
-34.845062
20
-9.084583
30
51.825676
11
-34.845062
21
-9.084583
31
51.825676
12
-34.845062
22
-9.184584
32
51.825676
13
-34.845062
23
-9.184584
33
51.825676
0
3DFACE
10
-34.845062
20
-8.984583
30
51.825676
11
-34.845062
21
-9.084583
31
51.825676
12
-34.845062
22
-9.184584
32
51.825676
13
-34.845062
23
-9.184584
33
51.825676
0
3DFACE
10
-34.845062
20
-9.084583
30
51.825676
11
-34.845062
21
-9.084583
31
51.825676
12
-34.845062
22
-8.984583
32
51.825676
13
-34.845062
23
-8.984583
33
51.825676
0
3DFACE
10
-34.845062
20
-9.084583
30
51.825676
11
-34.845062
21
-9.084583
31
51.825676
12
-34.845062
22
-8.984583
32
51.825676
13
-34.845062
23
-8.984583
33
51.825676
0
3DFACE
10
-34.845062
20
-9.084583
30
51.825676
11
-34.845062
21
-9.084583
31
51.825676
12
-34.845062
22
-8.984583
32
51.825676
13
-34.845062
23
-8.984583
33
51.825676
0
3DFACE
10
-34.845062
20
-9.084583
30
51.825676
11
-34.845062
21
-9.084583
31
51.825676
12
-34.845062
22
-8.984583
32
51.825676
13
-34.845062
23
-8.984583
33
51.825676
0
3DFACE
10
-34.845062
20
-9.084583
30
51.825676
11
-34.845062
21
-9.084583
31
51.825676
12
-34.845062
22
-8.984583
32
51.825676
13
-34.845062
23
-8.984583
33
51.825676
0
3DFACE
10
-34.845062
20
-9.084583
30
51.825676
11
-34.845062
21
-9.084583
31
51.825676
12
-34.845062
22
-8.984583
32
51.825676
13
-34.845062
23
-8.984583
33
51.825676
0
3DFACE
10
-34.845062
20
-9.084583
30
51.825676
11
-34.845062
21
-9.084583
31
51.825676
12
-34.845062
22
-8.984583
32
51.825676
13
-34.845062
23
-8.984583
33
51.825676
0
3DFACE
10
-34.845062
20
-9.184584
30
51.825676
11
-34.845062
21
-9.084583
31
51.825676
12
-34.845062
22
-8.984583
32
51.825676
13
-34.845062
23
-8.984583
33
51.825676
0
3DFACE
10
-34.845062
20
-9.084583
30
51.825676
11
-34.845062
21
-9.084583
31
51.825676
12
-34.845062
22
-9.184584
32
51.825676
13
-34.845062
23
-9.184584
33
51.825676
0
3DFACE
10
-34.845062
20
-8.984583
30
51.825676
11
-34.845062
21
-9.084583
31
51.825676
12
-34.845062
22
-9.184584
32
51.825676
13
-34.845062
23
-9.184584
33
51.825676
0
3DFACE
10
-34.845062
20
-9.084583
30
51.825676
11
-34.845062
21
-9.084583
31
51.825676
12
-34.845062
22
-8.984583
32
51.825676
13
-34.845062
23
-8.984583
33
51.825676
0
3DFACE
10
-34.845062
20
-9.084583
30
51.825676
11
-34.845062
21
-9.084583
31
51.825676
12
-34.845062
22
-8.984583
32
51.825676
13
-34.845062
23
-8.984583
33
51.825676
0
3DFACE
10
-34.845062
20
-9.084583
30
51.825676
11
-34.845062
21
-9.084583
31
51.825676
12
-34.845062
22
-8.984583
32
51.825676
13
-34.845062
23
-8.984583
33
51.825676
0
3DFACE
10
-34.845062
20
-9.084583
30
51.825676
11
-34.845062
21
-9.084583
31
51.825676
12
-34.845062
22
-8.984583
32
51.825676
13
-34.845062
23
-8.984583
33
51.825676
0
3DFACE
10
-34.845062
20
-9.084583
30
51.825676
11
-34.845062
21
-9.084583
31
51.825676
12
-34.845062
22
-8.984583
32
51.825676
13
-34.845062
23
-8.984583
33
51.825676
0
3DFACE
10
-34.845062
20
-9.084583
30
51.825676
11
-34.845062
21
-9.084583
31
51.825676
12
-34.845062
22
-8.984583
32
51.825676
13
-34.845062
23
-8.984583
33
51.825676
0
3DFACE
10
-34.845062
20
-9.084583
30
51.825676
11
-34.845062
21
-9.084583
31
51.825676
12
-34.845062
22
-8.984583
32
51.825676
13
-34.845062
23
-8.984583
33
51.825676
0
3DFACE
10
-34.845062
20
-9.184584
30
51.825676
11
-34.845062
21
-9.084583
31
51.825676
12
-34.845062
22
-8.984583
32
51.825676
13
-34.845062
23
-8.984583
33
51.825676
0
3DFACE
10
-34.845062
20
-9.084583
30
51.825676
11
-34.845062
21
-9.084583
31
51.825676
12
-34.845062
22
-9.184584
32
51.825676
13
-34.845062
23
-9.184584
33
51.825676
0
3DFACE
10
-34.845062
20
-8.984583
30
51.825676
11
-34.845062
21
-9.084583
31
51.825676
12
-34.845062
22
-9.184584
32
51.825676
13
-34.845062
23
-9.184584
33
51.825676
0
3DFACE
10
-34.845062
20
-9.084583
30
51.825676
11
-34.845062
21
-9.084583
31
51.825676
12
-34.845062
22
-8.984583
32
51.825676
13
-34.845062
23
-8.984583
33
51.825676
0
3DFACE
10
-34.845062
20
-9.184584
30
51.825676
11
-34.845062
21
-9.084583
31
51.825676
12
-34.845062
22
-8.984583
32
51.825676
13
-34.845062
23
-8.984583
33
51.825676
0
3DFACE
10
-34.845062
20
-9.084583
30
51.825676
11
-34.845062
21
-9.084583
31
51.825676
12
-34.845062
22
-9.184584
32
51.825676
13
-34.845062
23
-9.184584
33
51.825676
0
3DFACE
10
-34.845062
20
-8.984583
30
51.825676
11
-34.845062
21
-9.084583
31
51.825676
12
-34.845062
22
-9.184584
32
51.825676
13
-34.845062
23
-9.184584
33
51.825676
0
3DFACE
10
-34.845062
20
-9.084583
30
51.825676
11
-34.845062
21
-9.084583
31
51.825676
12
-34.845062
22
-8.984583
32
51.825676
13
-34.845062
23
-8.984583
33
51.825676
0
3DFACE
10
-34.845062
20
-9.184584
30
51.825676
11
-34.845062
21
-9.084583
31
51.825676
12
-34.845062
22
-8.984583
32
51.825676
13
-34.845062
23
-8.984583
33
51.825676
0
3DFACE
10
-34.845062
20
-9.084583
30
51.825676
11
-34.845062
21
-9.084583
31
51.825676
12
-34.845062
22
-9.184584
32
51.825676
13
-34.845062
23
-9.184584
33
51.825676
0
3DFACE
10
-34.845062
20
-8.984583
30
51.825676
11
-34.845062
21
-9.084583
31
51.825676
12
-34.845062
22
-9.184584
32
51.825676
13
-34.845062
23
-9.184584
33
51.825676
0
3DFACE
10
-34.845062
20
-9.084583
30
51.825676
11
-34.845062
21
-9.084583
31
51.825676
12
-34.845062
22
-8.984583
32
51.825676
13
-34.845062
23
-8.984583
33
51.825676
0
3DFACE
10
-34.845062
20
-9.084583
30
51.825676
11
-34.845062
21
-9.084583
31
51.825676
12
-34.845062
22
-8.984583
32
51.825676
13
-34.845062
23
-8.984583
33
51.825676
0
3DFACE
10
-34.845062
20
-9.084583
30
51.825676
11
-34.845062
21
-9.084583
31
51.825676
12
-34.845062
22
-8.984583
32
51.825676
13
-34.845062
23
-8.984583
33
51.825676
0
3DFACE
10
-34.845062
20
-9.084583
30
51.825676
11
-34.845062
21
-9.084583
31
51.825676
12
-34.845062
22
-8.984583
32
51.825676
13
-34.845062
23
-8.984583
33
51.825676
0
3DFACE
10
-34.845062
20
-9.084583
30
51.825676
11
-34.845062
21
-9.084583
31
51.825676
12
-34.845062
22
-8.984583
32
51.825676
13
-34.845062
23
-8.984583
33
51.825676
0
3DFACE
10
-34.845062
20
-9.084583
30
51.825676
11
-34.845062
21
-9.084583
31
51.825676
12
-34.845062
22
-8.984583
32
51.825676
13
-34.845062
23
-8.984583
33
51.825676
0
3DFACE
10
-34.845062
20
-9.084583
30
51.825676
11
-34.845062
21
-9.084583
31
51.825676
12
-34.845062
22
-8.984583
32
51.825676
13
-34.845062
23
-8.984583
33
51.825676
0
3DFACE
10
-34.845062
20
-9.184584
30
51.825676
11
-34.845062
21
-9.084583
31
51.825676
12
-34.845062
22
-8.984583
32
51.825676
13
-34.845062
23
-8.984583
33
51.825676
0
3DFACE
10
-34.845062
20
-9.084583
30
51.825676
11
-34.845062
21
-9.084583
31
51.825676
12
-34.845062
22
-9.184584
32
51.825676
13
-34.845062
23
-9.184584
33
51.825676
0
3DFACE
10
-34.845062
20
-8.984583
30
51.825676
11
-34.845062
21
-9.084583
31
51.825676
12
-34.845062
22
-9.184584
32
51.825676
13
-34.845062
23
-9.184584
33
51.825676
0
3DFACE
10
-34.845062
20
-9.084583
30
51.825676
11
-34.845062
21
-9.084583
31
51.825676
12
-34.845062
22
-8.984583
32
51.825676
13
-34.845062
23
-8.984583
33
51.825676
0
3DFACE
10
-34.845062
20
-9.084583
30
51.825676
11
-34.845062
21
-9.084583
31
51.825676
12
-34.845062
22
-8.984583
32
51.825676
13
-34.845062
23
-8.984583
33
51.825676
0
3DFACE
10
-34.845062
20
-9.084583
30
51.825676
11
-34.845062
21
-9.084583
31
51.825676
12
-34.845062
22
-8.984583
32
51.825676
13
-34.845062
23
-8.984583
33
51.825676
0
3DFACE
10
-34.845062
20
-9.084583
30
51.825676
11
-34.845062
21
-9.084583
31
51.825676
12
-34.845062
22
-8.984583
32
51.825676
13
-34.845062
23
-8.984583
33
51.825676
0
3DFACE
10
-34.845062
20
-9.084583
30
51.825676
11
-34.845062
21
-9.084583
31
51.825676
12
-34.845062
22
-8.984583
32
51.825676
13
-34.845062
23
-8.984583
33
51.825676
0
3DFACE
10
-34.845062
20
-9.084583
30
51.825676
11
-34.845062
21
-9.084583
31
51.825676
12
-34.845062
22
-8.984583
32
51.825676
13
-34.845062
23
-8.984583
33
51.825676
0
3DFACE
10
-34.845062
20
-9.084583
30
51.825676
11
-34.845062
21
-9.084583
31
51.825676
12
-34.845062
22
-8.984583
32
51.825676
13
-34.845062
23
-8.984583
33
51.825676
0
3DFACE
10
-34.845062
20
-9.184584
30
51.825676
11
-34.845062
21
-9.084583
31
51.825676
12
-34.845062
22
-8.984583
32
51.825676
13
-34.845062
23
-8.984583
33
51.825676
0
3DFACE
10
-34.845062
20
-9.084583
30
51.825676
11
-34.845062
21
-9.084583
31
51.825676
12
-34.845062
22
-9.184584
32
51.825676
13
-34.845062
23
-9.184584
33
51.825676
0
3DFACE
10
-34.845062
20
-9.084583
30
51.825676
11
-34.845062
21
-9.084583
31
51.825676
12
-34.845062
22
-9.184584
32
51.825676
13
-34.845062
23
-9.184584
33
51.825676
0
3DFACE
10
-34.845062
20
-9.084583
30
51.825676
11
-34.845062
21
-9.084583
31
51.825676
12
-34.845062
22
-9.084583
32
51.825676
13
-34.845062
23
-9.084583
33
51.825676
0
3DFACE
10
-34.845062
20
-9.184584
30
51.825676
11
-34.845062
21
-9.084583
31
51.825676
12
-34.845062
22
-9.084583
32
51.825676
13
-34.845062
23
-9.084583
33
51.825676
0
3DFACE
10
-34.845062
20
-9.084583
30
51.825676
11
-34.845062
21
-9.084583
31
51.825676
12
-34.845062
22
-9.184584
32
51.825676
13
-34.845062
23
-9.184584
33
51.825676
0
3DFACE
10
-34.845062
20
-9.084583
30
51.825676
11
-34.845062
21
-9.084583
31
51.825676
12
-34.845062
22
-9.184584
32
51.825676
13
-34.845062
23
-9.184584
33
51.825676
0
3DFACE
10
-34.845062
20
-9.084583
30
51.825676
11
-34.845062
21
-9.084583
31
51.825676
12
-34.845062
22
-9.084583
32
51.825676
13
-34.845062
23
-9.084583
33
51.825676
0
3DFACE
10
-34.845062
20
-9.184584
30
51.825676
11
-34.845062
21
-9.084583
31
51.825676
12
-34.845062
22
-9.084583
32
51.825676
13
-34.845062
23
-9.084583
33
51.825676
0
3DFACE
10
-34.845062
20
-9.084583
30
51.825676
11
-34.845062
21
-9.084583
31
51.825676
12
-34.845062
22
-9.184584
32
51.825676
13
-34.845062
23
-9.184584
33
51.825676
0
3DFACE
10
-34.845062
20
-9.084583
30
51.825676
11
-34.845062
21
-9.084583
31
51.825676
12
-34.845062
22
-9.184584
32
51.825676
13
-34.845062
23
-9.184584
33
51.825676
0
3DFACE
10
-34.845062
20
-9.084583
30
51.825676
11
-34.845062
21
-9.084583
31
51.825676
12
-34.845062
22
-8.984583
32
51.825676
13
-34.845062
23
-8.984583
33
51.825676
0
3DFACE
10
-34.845062
20
-9.084583
30
51.825676
11
-34.845062
21
-9.084583
31
51.825676
12
-34.845062
22
-8.984583
32
51.825676
13
-34.845062
23
-8.984583
33
51.825676
0
3DFACE
10
-34.845062
20
-9.084583
30
51.825676
11
-34.845062
21
-9.084583
31
51.825676
12
-34.845062
22
-8.984583
32
51.825676
13
-34.845062
23
-8.984583
33
51.825676
0
3DFACE
10
-34.845062
20
-9.084583
30
51.825676
11
-34.845062
21
-9.084583
31
51.825676
12
-34.845062
22
-8.984583
32
51.825676
13
-34.845062
23
-8.984583
33
51.825676
0
3DFACE
10
-34.845062
20
-9.084583
30
51.825676
11
-34.845062
21
-9.084583
31
51.825676
12
-34.845062
22
-8.984583
32
51.825676
13
-34.845062
23
-8.984583
33
51.825676
0
3DFACE
10
-34.845062
20
-9.084583
30
51.825676
11
-34.845062
21
-9.084583
31
51.825676
12
-34.845062
22
-8.984583
32
51.825676
13
-34.845062
23
-8.984583
33
51.825676
0
3DFACE
10
-34.845062
20
-9.084583
30
51.825676
11
-34.845062
21
-9.084583
31
51.825676
12
-34.845062
22
-9.084583
32
51.825676
13
-34.845062
23
-9.084583
33
51.825676
0
3DFACE
10
-34.845062
20
-9.184584
30
51.825676
11
-34.845062
21
-9.084583
31
51.825676
12
-34.845062
22
-9.084583
32
51.825676
13
-34.845062
23
-9.084583
33
51.825676
0
3DFACE
10
-34.845062
20
-9.084583
30
51.825676
11
-34.845062
21
-9.084583
31
51.825676
12
-34.845062
22
-9.184584
32
51.825676
13
-34.845062
23
-9.184584
33
51.825676
0
3DFACE
10
-34.845062
20
-8.984583
30
51.825676
11
-34.845062
21
-9.084583
31
51.825676
12
-34.845062
22
-9.184584
32
51.825676
13
-34.845062
23
-9.184584
33
51.825676
0
3DFACE
10
-34.845062
20
-9.084583
30
51.825676
11
-34.845062
21
-9.184584
31
51.825676
12
-34.845062
22
-8.984583
32
51.825676
13
-34.845062
23
-8.984583
33
51.825676
0
3DFACE
10
-34.845062
20
-9.184584
30
51.825676
11
-34.845062
21
-9.084583
31
51.825676
12
-34.845062
22
-8.984583
32
51.825676
13
-34.845062
23
-8.984583
33
51.825676
0
3DFACE
10
-34.845062
20
-9.084583
30
51.825676
11
-34.845062
21
-9.184584
31
51.825676
12
-34.845062
22
-8.984583
32
51.825676
13
-34.845062
23
-8.984583
33
51.825676
0
3DFACE
10
-34.845062
20
-9.184584
30
51.825676
11
-34.845062
21
-9.084583
31
51.825676
12
-34.845062
22
-8.984583
32
51.825676
13
-34.845062
23
-8.984583
33
51.825676
0
3DFACE
10
-34.845062
20
-9.084583
30
51.825676
11
-34.845062
21
-9.184584
31
51.825676
12
-34.845062
22
-8.984583
32
51.825676
13
-34.845062
23
-8.984583
33
51.825676
0
3DFACE
10
-34.845062
20
-9.184584
30
51.825676
11
-34.845062
21
-9.084583
31
51.825676
12
-34.845062
22
-8.984583
32
51.825676
13
-34.845062
23
-8.984583
33
51.825676
0
3DFACE
10
-34.845062
20
-9.184584
30
51.825676
11
-34.845062
21
-9.284584
31
51.825676
12
-34.845062
22
-9.184584
32
51.825676
13
-34.845062
23
-9.184584
33
51.825676
0
3DFACE
10
-34.845062
20
-8.984583
30
51.825676
11
-34.845062
21
-9.184584
31
51.825676
12
-34.845062
22
-9.184584
32
51.825676
13
-34.845062
23
-9.184584
33
51.825676
0
3DFACE
10
-34.845062
20
-9.284584
30
51.825676
11
-34.845062
21
-9.084583
31
51.825676
12
-34.845062
22
-9.084583
32
51.825676
13
-34.845062
23
-9.084583
33
51.825676
0
3DFACE
10
-34.845062
20
-9.184584
30
51.825676
11
-34.845062
21
-9.284584
31
51.825676
12
-34.845062
22
-9.084583
32
51.825676
13
-34.845062
23
-9.084583
33
51.825676
0
3DFACE
10
-34.845062
20
-9.084583
30
51.825676
11
-34.845062
21
-9.284584
31
51.825676
12
-34.845062
22
-9.184584
32
51.825676
13
-34.845062
23
-9.184584
33
51.825676
0
3DFACE
10
-34.845062
20
-9.084583
30
51.825676
11
-34.845062
21
-9.084583
31
51.825676
12
-34.845062
22
-9.184584
32
51.825676
13
-34.845062
23
-9.184584
33
51.825676
0
3DFACE
10
-34.845062
20
-9.284584
30
51.825676
11
-34.845062
21
-9.084583
31
51.825676
12
-34.845062
22
-9.084583
32
51.825676
13
-34.845062
23
-9.084583
33
51.825676
0
3DFACE
10
-34.845062
20
-9.184584
30
51.825676
11
-34.845062
21
-9.284584
31
51.825676
12
-34.845062
22
-9.084583
32
51.825676
13
-34.845062
23
-9.084583
33
51.825676
0
3DFACE
10
-34.845062
20
-9.084583
30
51.825676
11
-34.845062
21
-9.284584
31
51.825676
12
-34.845062
22
-9.284584
32
51.825676
13
-34.845062
23
-9.284584
33
51.825676
0
3DFACE
10
-34.845062
20
-9.084583
30
51.825676
11
-34.845062
21
-9.084583
31
51.825676
12
-34.845062
22
-9.284584
32
51.825676
13
-34.845062
23
-9.284584
33
51.825676
0
3DFACE
10
-34.845062
20
-9.284584
30
51.825676
11
-34.845062
21
-9.084583
31
51.825676
12
-34.845062
22
-9.084583
32
51.825676
13
-34.845062
23
-9.084583
33
51.825676
0
3DFACE
10
-34.845062
20
-9.284584
30
51.825676
11
-34.845062
21
-9.284584
31
51.825676
12
-34.845062
22
-9.084583
32
51.825676
13
-34.845062
23
-9.084583
33
51.825676
0
3DFACE
10
-34.845062
20
-9.184584
30
51.825676
11
-34.845062
21
-9.084583
31
51.825676
12
-34.845062
22
-9.184584
32
51.825676
13
-34.845062
23
-9.184584
33
51.825676
0
3DFACE
10
-34.845062
20
-8.984583
30
51.825676
11
-34.845062
21
-9.184584
31
51.825676
12
-34.845062
22
-9.184584
32
51.825676
13
-34.845062
23
-9.184584
33
51.825676
0
3DFACE
10
-34.845062
20
-9.084583
30
51.825676
11
-34.845062
21
-9.184584
31
51.825676
12
-34.845062
22
-8.984583
32
51.825676
13
-34.845062
23
-8.984583
33
51.825676
0
3DFACE
10
-34.845062
20
-9.184584
30
51.825676
11
-34.845062
21
-9.084583
31
51.825676
12
-34.845062
22
-8.984583
32
51.825676
13
-34.845062
23
-8.984583
33
51.825676
0
3DFACE
10
-34.845062
20
-9.384584
30
51.825676
11
-34.845062
21
-9.184584
31
51.825676
12
-34.845062
22
-9.284584
32
51.825676
13
-34.845062
23
-9.284584
33
51.825676
0
3DFACE
10
-34.845062
20
-9.384584
30
51.825676
11
-34.845062
21
-9.284584
31
51.825676
12
-34.845062
22
-9.184584
32
51.825676
13
-34.845062
23
-9.184584
33
51.825676
0
3DFACE
10
-34.845062
20
-9.184584
30
51.825676
11
-34.845062
21
-8.984583
31
51.825676
12
-34.845062
22
-9.084583
32
51.825676
13
-34.845062
23
-9.084583
33
51.825676
0
3DFACE
10
-34.845062
20
-9.284584
30
51.825676
11
-34.845062
21
-9.184584
31
51.825676
12
-34.845062
22
-9.084583
32
51.825676
13
-34.845062
23
-9.084583
33
51.825676
0
3DFACE
10
-34.845062
20
-8.984583
30
51.825676
11
-34.845062
21
-9.184584
31
51.825676
12
-34.845062
22
-9.284584
32
51.825676
13
-34.845062
23
-9.284584
33
51.825676
0
3DFACE
10
-34.845062
20
-9.084583
30
51.825676
11
-34.845062
21
-8.984583
31
51.825676
12
-34.845062
22
-9.284584
32
51.825676
13
-34.845062
23
-9.284584
33
51.825676
0
3DFACE
10
-34.845062
20
-9.184584
30
51.825676
11
-34.845062
21
-8.984583
31
51.825676
12
-34.845062
22
-9.084583
32
51.825676
13
-34.845062
23
-9.084583
33
51.825676
0
3DFACE
10
-34.845062
20
-9.284584
30
51.825676
11
-34.845062
21
-9.184584
31
51.825676
12
-34.845062
22
-9.084583
32
51.825676
13
-34.845062
23
-9.084583
33
51.825676
0
3DFACE
10
-34.845062
20
-8.984583
30
51.825676
11
-34.845062
21
-9.184584
31
51.825676
12
-34.845062
22
-9.284584
32
51.825676
13
-34.845062
23
-9.284584
33
51.825676
0
3DFACE
10
-34.845062
20
-9.084583
30
51.825676
11
-34.845062
21
-8.984583
31
51.825676
12
-34.845062
22
-9.284584
32
51.825676
13
-34.845062
23
-9.284584
33
51.825676
0
3DFACE
10
-34.845062
20
-9.184584
30
51.825676
11
-34.845062
21
-8.984583
31
51.825676
12
-34.845062
22
-9.084583
32
51.825676
13
-34.845062
23
-9.084583
33
51.825676
0
3DFACE
10
-34.845062
20
-9.284584
30
51.825676
11
-34.845062
21
-9.184584
31
51.825676
12
-34.845062
22
-9.084583
32
51.825676
13
-34.845062
23
-9.084583
33
51.825676
0
3DFACE
10
-34.845062
20
-9.184584
30
51.825676
11
-34.845062
21
-8.984583
31
51.825676
12
-34.845062
22
-9.084583
32
51.825676
13
-34.845062
23
-9.084583
33
51.825676
0
3DFACE
10
-34.845062
20
-9.184584
30
51.825676
11
-34.845062
21
-9.184584
31
51.825676
12
-34.845062
22
-9.084583
32
51.825676
13
-34.845062
23
-9.084583
33
51.825676
0
3DFACE
10
-34.845062
20
-9.384584
30
51.825676
11
-34.845062
21
-9.184584
31
51.825676
12
-34.845062
22
-8.984583
32
51.825676
13
-34.845062
23
-8.984583
33
51.825676
0
3DFACE
10
-34.845062
20
-9.084583
30
51.825676
11
-34.845062
21
-8.984583
31
51.825676
12
-34.845062
22
-9.184584
32
51.825676
13
-34.845062
23
-9.184584
33
51.825676
0
ENDSEC
0
EOF
